<?xml version="1.0" encoding="iso-8859-1"?>
<!-- Generator: Adobe Illustrator 18.1.1, SVG Export Plug-In . SVG Version: 6.00 Build 0)  -->
<svg version="1.1" id="Capa_1" xmlns="http://www.w3.org/2000/svg" xmlns:xlink="http://www.w3.org/1999/xlink" x="0px" y="0px"
	 viewBox="0 0 358.825 358.825" style="enable-background:new 0 0 358.825 358.825;" xml:space="preserve">
<g>
	<g id="Layer_5_51_">
		<g>
			<path d="M179.413,0c-6.081,0-22.235,0-22.235,15.724V132.82c0,15.724,16.154,15.724,22.235,15.724s22.235,0,22.235-15.724V15.724
				C201.648,0,185.494,0,179.413,0z"/>
			<path d="M318.411,110.418c-15.457-24.615-37.172-45.026-62.795-59.026c-0.901-0.493-2.289-1.081-3.779-1.081
				c-1.258,0-5.359,0.508-5.359,7.042v32.01c0,5.539,3.582,8.248,5.303,9.55l0.379,0.289c30.643,23.942,48.939,59.805,48.939,95.932
				c0,67.098-54.588,121.686-121.685,121.686S57.728,262.231,57.728,195.134c0-35.53,17.859-71.048,47.775-95.011
				c1.605-1.287,6.848-6.025,6.848-12.962V58.708c0-7.228-4.507-7.79-5.888-7.79c-2.202,0-4.381,1.08-6.224,2.137
				c-52.132,29.91-84.518,84.352-84.518,142.079c0,90.26,73.432,163.691,163.691,163.691s163.691-73.432,163.691-163.691
				C343.104,165.435,334.565,136.142,318.411,110.418z"/>
		</g>
	</g>
</g>
<g>
</g>
<g>
</g>
<g>
</g>
<g>
</g>
<g>
</g>
<g>
</g>
<g>
</g>
<g>
</g>
<g>
</g>
<g>
</g>
<g>
</g>
<g>
</g>
<g>
</g>
<g>
</g>
<g>
</g>
</svg>
